<?xml version="1.0" encoding="UTF-8" standalone="no"?>
<!-- Creator: CorelDRAW X5 -->

<svg
   xmlns:dc="http://purl.org/dc/elements/1.1/"
   xmlns:cc="http://creativecommons.org/ns#"
   xmlns:rdf="http://www.w3.org/1999/02/22-rdf-syntax-ns#"
   xmlns:svg="http://www.w3.org/2000/svg"
   xmlns="http://www.w3.org/2000/svg"
   xmlns:sodipodi="http://sodipodi.sourceforge.net/DTD/sodipodi-0.dtd"
   xmlns:inkscape="http://www.inkscape.org/namespaces/inkscape"
   xml:space="preserve"
   width="280"
   height="220"
   style="fill-rule:evenodd"
   viewBox="0 0 7902.2222 6208.8889"
   id="svg2"
   version="1.1"
   inkscape:version="0.48.2 r9819"
   sodipodi:docname="@ Guosen Group Logo.svg"><metadata
   id="metadata29"><rdf:RDF><cc:Work
       rdf:about=""><dc:format>image/svg+xml</dc:format><dc:type
         rdf:resource="http://purl.org/dc/dcmitype/StillImage" /><dc:title></dc:title></cc:Work></rdf:RDF></metadata><sodipodi:namedview
   pagecolor="#ffffff"
   bordercolor="#666666"
   borderopacity="1"
   objecttolerance="10"
   gridtolerance="10"
   guidetolerance="10"
   inkscape:pageopacity="0"
   inkscape:pageshadow="2"
   inkscape:window-width="1280"
   inkscape:window-height="962"
   id="namedview27"
   showgrid="false"
   inkscape:zoom="0.52444444"
   inkscape:cx="196.39831"
   inkscape:cy="225"
   inkscape:window-x="-8"
   inkscape:window-y="-8"
   inkscape:window-maximized="1"
   inkscape:current-layer="svg2" />
 <defs
   id="defs4">
  <style
   type="text/css"
   id="style6">
   
    .fil2 {fill:#727376}
    .fil1 {fill:#006DAE}
    .fil0 {fill:#F1613A}
   
  </style>
 </defs>
 <g
   id="Layer_x0020_1"
   transform="matrix(5.3830048,0,0,5.3830048,-1010.1874,-2969.3191)">
  <metadata
   id="CorelCorpID_0Corel-Layer" />
  <g
   id="_274542976">
   <path
   class="fil0"
   d="m 1625,837 -718,595 c 15,-20 28,-43 37,-66 0,0 1,0 1,0 141,-141 83,-237 -3,-344 C 860,920 834,701 934,571 l 185,101 85,-50 420,214 z"
   id="path11"
   inkscape:connector-curvature="0"
   style="fill:#f1613a" />
   <path
   class="fil1"
   d="M 217,1167 935,572 c -15,20 -28,42 -37,65 0,0 0,0 0,0 -140,141 -87,240 -2,346 82,102 112,319 12,449 l -185,-101 -85,50 -420,-214 z"
   id="path13"
   inkscape:connector-curvature="0"
   style="fill:#006dae" />
   <path
   class="fil2"
   d="m 378,1521 98,0 0,0 67,0 0,34 -1,0 -141,0 c 0,27 0,54 0,81 l 0,1 33,0 0,-1 58,0 0,-25 -58,0 0,-33 108,0 0,67 c 0,17 -14,31 -31,31 l -133,0 c -17,0 -31,-14 -31,-31 l 0,-92 c 0,-17 14,-31 31,-31 z"
   id="path15"
   inkscape:connector-curvature="0"
   style="fill:#727376" />
   <path
   class="fil2"
   d="m 556,1519 53,0 0,117 88,0 0,-117 54,0 0,123 c 0,17 -14,31 -31,31 l -124,0 c -22,0 -39,-17 -39,-39 l 0,-116 z"
   id="path17"
   inkscape:connector-curvature="0"
   style="fill:#727376" />
   <path
   class="fil2"
   d="m 794,1518 131,0 c 17,0 31,14 31,31 l 0,93 c 0,17 -14,31 -31,31 l -131,0 c -17,0 -31,-14 -31,-31 l 0,-93 c 0,-17 14,-31 31,-31 z m 24,36 85,0 0,83 -85,0 0,-83 z"
   id="path19"
   inkscape:connector-curvature="0"
   style="fill:#727376" />
   <path
   class="fil2"
   d="m 999,1520 142,0 0,34 -122,0 0,24 96,0 c 13,2 22,10 25,24 l 1,1 0,39 c 0,17 -14,31 -31,31 l -142,0 0,-38 123,0 0,-22 -96,0 c -13,-2 -22,-10 -25,-24 l -2,-4 0,-35 c 0,-17 14,-31 31,-31 z"
   id="path21"
   inkscape:connector-curvature="0"
   style="fill:#727376" />
   <path
   class="fil2"
   d="m 1184,1520 133,0 0,34 -117,0 0,25 117,0 0,34 -117,0 0,24 117,0 0,37 -133,0 c -17,0 -31,-14 -31,-31 l 0,-92 c 0,-17 14,-31 31,-31 z"
   id="path23"
   inkscape:connector-curvature="0"
   style="fill:#727376" />
   <path
   class="fil2"
   d="m 1462,1520 46,0 0,154 -21,0 c -8,0 -16,-1 -24,-5 l 0,0 c -7,-3 -13,-8 -20,-15 l -63,-86 0,106 -46,0 0,-154 46,0 0,0 0,0 c 9,2 16,6 23,13 l 59,80 0,-94 z"
   id="path25"
   inkscape:connector-curvature="0"
   style="fill:#727376" />
  </g>
 </g>
</svg>